{
	"asset":{
		"generator":"Khronos glTF Blender I/O v4.2.57",
		"version":"2.0"
	},
	"scene":0,
	"scenes":[
		{
			"name":"Scene",
			"nodes":[
				0,
				1,
				2,
				3,
				4,
				5,
				6,
				7,
				8,
				9,
				10,
				11,
				12,
				13,
				14,
				15,
				16,
				17,
				18
			]
		}
	],
	"nodes":[
		{
			"mesh":0,
			"name":"Ground"
		},
		{
			"mesh":1,
			"name":"Ramp_N",
			"translation":[
				0,
				0,
				-15
			]
		},
		{
			"mesh":2,
			"name":"Ramp_S",
			"translation":[
				0,
				0,
				15
			]
		},
		{
			"mesh":3,
			"name":"Ramp_E",
			"translation":[
				15,
				0,
				0
			]
		},
		{
			"mesh":4,
			"name":"Ramp_W",
			"translation":[
				-15,
				0,
				0
			]
		},
		{
			"mesh":5,
			"name":"Ramp_NE",
			"translation":[
				25,
				0,
				-25
			]
		},
		{
			"mesh":6,
			"name":"Ramp_NW",
			"translation":[
				-25,
				0,
				-25
			]
		},
		{
			"mesh":7,
			"name":"Ramp_SE",
			"translation":[
				25,
				0,
				25
			]
		},
		{
			"mesh":8,
			"name":"Ramp_SW",
			"translation":[
				-25,
				0,
				25
			]
		},
		{
			"mesh":9,
			"name":"Platform_Center"
		},
		{
			"mesh":10,
			"name":"Platform_NE"
		},
		{
			"mesh":11,
			"name":"Platform_NW"
		},
		{
			"mesh":12,
			"name":"Platform_SE"
		},
		{
			"mesh":13,
			"name":"Platform_SW"
		},
		{
			"mesh":14,
			"name":"Ramp_To_NE",
			"translation":[
				25,
				0,
				-35
			]
		},
		{
			"mesh":15,
			"name":"Ramp_To_NW",
			"translation":[
				-25,
				0,
				-35
			]
		},
		{
			"mesh":16,
			"name":"Ramp_To_SE",
			"translation":[
				25,
				0,
				35
			]
		},
		{
			"mesh":17,
			"name":"Ramp_To_SW",
			"translation":[
				-25,
				0,
				35
			]
		},
		{
			"mesh":18,
			"name":"Level-colonly"
		}
	],
	"materials":[
		{
			"doubleSided":true,
			"name":"Baked_Ground",
			"pbrMetallicRoughness":{
				"baseColorTexture":{
					"index":0
				},
				"metallicFactor":0,
				"roughnessFactor":0.800000011920929
			}
		},
		{
			"doubleSided":true,
			"name":"Baked_Ramp",
			"pbrMetallicRoughness":{
				"baseColorTexture":{
					"index":1
				},
				"metallicFactor":0,
				"roughnessFactor":0.800000011920929
			}
		},
		{
			"doubleSided":true,
			"name":"Baked_Platform",
			"pbrMetallicRoughness":{
				"baseColorTexture":{
					"index":2
				},
				"metallicFactor":0,
				"roughnessFactor":0.800000011920929
			}
		}
	],
	"meshes":[
		{
			"name":"Plane.013",
			"primitives":[
				{
					"attributes":{
						"POSITION":0,
						"NORMAL":1,
						"TEXCOORD_0":2
					},
					"indices":3,
					"material":0
				}
			]
		},
		{
			"name":"Ramp_N",
			"primitives":[
				{
					"attributes":{
						"POSITION":4,
						"NORMAL":5,
						"TEXCOORD_0":6
					},
					"indices":7,
					"material":1
				}
			]
		},
		{
			"name":"Ramp_S",
			"primitives":[
				{
					"attributes":{
						"POSITION":8,
						"NORMAL":9,
						"TEXCOORD_0":10
					},
					"indices":7,
					"material":1
				}
			]
		},
		{
			"name":"Ramp_E",
			"primitives":[
				{
					"attributes":{
						"POSITION":11,
						"NORMAL":12,
						"TEXCOORD_0":13
					},
					"indices":14,
					"material":1
				}
			]
		},
		{
			"name":"Ramp_W",
			"primitives":[
				{
					"attributes":{
						"POSITION":15,
						"NORMAL":16,
						"TEXCOORD_0":17
					},
					"indices":18,
					"material":1
				}
			]
		},
		{
			"name":"Ramp_NE",
			"primitives":[
				{
					"attributes":{
						"POSITION":19,
						"NORMAL":20,
						"TEXCOORD_0":21
					},
					"indices":22,
					"material":1
				}
			]
		},
		{
			"name":"Ramp_NW",
			"primitives":[
				{
					"attributes":{
						"POSITION":23,
						"NORMAL":24,
						"TEXCOORD_0":25
					},
					"indices":26,
					"material":1
				}
			]
		},
		{
			"name":"Ramp_SE",
			"primitives":[
				{
					"attributes":{
						"POSITION":27,
						"NORMAL":28,
						"TEXCOORD_0":29
					},
					"indices":30,
					"material":1
				}
			]
		},
		{
			"name":"Ramp_SW",
			"primitives":[
				{
					"attributes":{
						"POSITION":31,
						"NORMAL":32,
						"TEXCOORD_0":33
					},
					"indices":34,
					"material":1
				}
			]
		},
		{
			"name":"Cube.004",
			"primitives":[
				{
					"attributes":{
						"POSITION":35,
						"NORMAL":36,
						"TEXCOORD_0":37
					},
					"indices":38,
					"material":2
				}
			]
		},
		{
			"name":"Cube.005",
			"primitives":[
				{
					"attributes":{
						"POSITION":39,
						"NORMAL":40,
						"TEXCOORD_0":41
					},
					"indices":38,
					"material":2
				}
			]
		},
		{
			"name":"Cube.006",
			"primitives":[
				{
					"attributes":{
						"POSITION":42,
						"NORMAL":43,
						"TEXCOORD_0":44
					},
					"indices":38,
					"material":2
				}
			]
		},
		{
			"name":"Cube.007",
			"primitives":[
				{
					"attributes":{
						"POSITION":45,
						"NORMAL":46,
						"TEXCOORD_0":47
					},
					"indices":38,
					"material":2
				}
			]
		},
		{
			"name":"Cube.008",
			"primitives":[
				{
					"attributes":{
						"POSITION":48,
						"NORMAL":49,
						"TEXCOORD_0":50
					},
					"indices":51,
					"material":2
				}
			]
		},
		{
			"name":"Ramp_To_NE",
			"primitives":[
				{
					"attributes":{
						"POSITION":52,
						"NORMAL":53,
						"TEXCOORD_0":54
					},
					"indices":55,
					"material":1
				}
			]
		},
		{
			"name":"Ramp_To_NW",
			"primitives":[
				{
					"attributes":{
						"POSITION":56,
						"NORMAL":57,
						"TEXCOORD_0":58
					},
					"indices":59,
					"material":1
				}
			]
		},
		{
			"name":"Ramp_To_SE",
			"primitives":[
				{
					"attributes":{
						"POSITION":60,
						"NORMAL":61,
						"TEXCOORD_0":62
					},
					"indices":55,
					"material":1
				}
			]
		},
		{
			"name":"Ramp_To_SW",
			"primitives":[
				{
					"attributes":{
						"POSITION":63,
						"NORMAL":64,
						"TEXCOORD_0":65
					},
					"indices":59,
					"material":1
				}
			]
		},
		{
			"name":"Plane.015",
			"primitives":[
				{
					"attributes":{
						"POSITION":66,
						"NORMAL":67,
						"TEXCOORD_0":68
					},
					"indices":69
				}
			]
		}
	],
	"textures":[
		{
			"sampler":0,
			"source":0
		},
		{
			"sampler":0,
			"source":1
		},
		{
			"sampler":0,
			"source":2
		}
	],
	"images":[
		{
			"mimeType":"image/png",
			"name":"tex_ground",
			"uri":"tex_ground.png"
		},
		{
			"mimeType":"image/png",
			"name":"tex_ramp",
			"uri":"tex_ramp.png"
		},
		{
			"mimeType":"image/png",
			"name":"tex_platform",
			"uri":"tex_platform.png"
		}
	],
	"accessors":[
		{
			"bufferView":0,
			"componentType":5126,
			"count":4,
			"max":[
				50,
				0,
				50
			],
			"min":[
				-50,
				0,
				-50
			],
			"type":"VEC3"
		},
		{
			"bufferView":1,
			"componentType":5126,
			"count":4,
			"type":"VEC3"
		},
		{
			"bufferView":2,
			"componentType":5126,
			"count":4,
			"type":"VEC2"
		},
		{
			"bufferView":3,
			"componentType":5123,
			"count":6,
			"type":"SCALAR"
		},
		{
			"bufferView":4,
			"componentType":5126,
			"count":24,
			"max":[
				5.000000476837158,
				2.5,
				4.000000476837158
			],
			"min":[
				-5.000000476837158,
				0,
				-4.000000476837158
			],
			"type":"VEC3"
		},
		{
			"bufferView":5,
			"componentType":5126,
			"count":24,
			"type":"VEC3"
		},
		{
			"bufferView":6,
			"componentType":5126,
			"count":24,
			"type":"VEC2"
		},
		{
			"bufferView":7,
			"componentType":5123,
			"count":36,
			"type":"SCALAR"
		},
		{
			"bufferView":8,
			"componentType":5126,
			"count":24,
			"max":[
				5,
				2.5,
				4
			],
			"min":[
				-5,
				0,
				-4
			],
			"type":"VEC3"
		},
		{
			"bufferView":9,
			"componentType":5126,
			"count":24,
			"type":"VEC3"
		},
		{
			"bufferView":10,
			"componentType":5126,
			"count":24,
			"type":"VEC2"
		},
		{
			"bufferView":11,
			"componentType":5126,
			"count":24,
			"max":[
				4,
				2.5,
				5
			],
			"min":[
				-4,
				0,
				-5
			],
			"type":"VEC3"
		},
		{
			"bufferView":12,
			"componentType":5126,
			"count":24,
			"type":"VEC3"
		},
		{
			"bufferView":13,
			"componentType":5126,
			"count":24,
			"type":"VEC2"
		},
		{
			"bufferView":14,
			"componentType":5123,
			"count":36,
			"type":"SCALAR"
		},
		{
			"bufferView":15,
			"componentType":5126,
			"count":24,
			"max":[
				4,
				2.5,
				5
			],
			"min":[
				-4,
				0,
				-5
			],
			"type":"VEC3"
		},
		{
			"bufferView":16,
			"componentType":5126,
			"count":24,
			"type":"VEC3"
		},
		{
			"bufferView":17,
			"componentType":5126,
			"count":24,
			"type":"VEC2"
		},
		{
			"bufferView":18,
			"componentType":5123,
			"count":36,
			"type":"SCALAR"
		},
		{
			"bufferView":19,
			"componentType":5126,
			"count":24,
			"max":[
				7.77817440032959,
				4,
				7.77817440032959
			],
			"min":[
				-7.77817440032959,
				0,
				-7.77817440032959
			],
			"type":"VEC3"
		},
		{
			"bufferView":20,
			"componentType":5126,
			"count":24,
			"type":"VEC3"
		},
		{
			"bufferView":21,
			"componentType":5126,
			"count":24,
			"type":"VEC2"
		},
		{
			"bufferView":22,
			"componentType":5123,
			"count":36,
			"type":"SCALAR"
		},
		{
			"bufferView":23,
			"componentType":5126,
			"count":24,
			"max":[
				7.77817440032959,
				4,
				7.77817440032959
			],
			"min":[
				-7.77817440032959,
				0,
				-7.77817440032959
			],
			"type":"VEC3"
		},
		{
			"bufferView":24,
			"componentType":5126,
			"count":24,
			"type":"VEC3"
		},
		{
			"bufferView":25,
			"componentType":5126,
			"count":24,
			"type":"VEC2"
		},
		{
			"bufferView":26,
			"componentType":5123,
			"count":36,
			"type":"SCALAR"
		},
		{
			"bufferView":27,
			"componentType":5126,
			"count":24,
			"max":[
				7.77817440032959,
				4,
				7.77817440032959
			],
			"min":[
				-7.77817440032959,
				0,
				-7.77817440032959
			],
			"type":"VEC3"
		},
		{
			"bufferView":28,
			"componentType":5126,
			"count":24,
			"type":"VEC3"
		},
		{
			"bufferView":29,
			"componentType":5126,
			"count":24,
			"type":"VEC2"
		},
		{
			"bufferView":30,
			"componentType":5123,
			"count":36,
			"type":"SCALAR"
		},
		{
			"bufferView":31,
			"componentType":5126,
			"count":24,
			"max":[
				7.77817440032959,
				4,
				7.77817440032959
			],
			"min":[
				-7.77817440032959,
				0,
				-7.77817440032959
			],
			"type":"VEC3"
		},
		{
			"bufferView":32,
			"componentType":5126,
			"count":24,
			"type":"VEC3"
		},
		{
			"bufferView":33,
			"componentType":5126,
			"count":24,
			"type":"VEC2"
		},
		{
			"bufferView":34,
			"componentType":5123,
			"count":36,
			"type":"SCALAR"
		},
		{
			"bufferView":35,
			"componentType":5126,
			"count":24,
			"max":[
				3.75,
				0.75,
				3.75
			],
			"min":[
				-3.75,
				0.25,
				-3.75
			],
			"type":"VEC3"
		},
		{
			"bufferView":36,
			"componentType":5126,
			"count":24,
			"type":"VEC3"
		},
		{
			"bufferView":37,
			"componentType":5126,
			"count":24,
			"type":"VEC2"
		},
		{
			"bufferView":38,
			"componentType":5123,
			"count":36,
			"type":"SCALAR"
		},
		{
			"bufferView":39,
			"componentType":5126,
			"count":24,
			"max":[
				39,
				3.75,
				-31
			],
			"min":[
				31,
				1.25,
				-39
			],
			"type":"VEC3"
		},
		{
			"bufferView":40,
			"componentType":5126,
			"count":24,
			"type":"VEC3"
		},
		{
			"bufferView":41,
			"componentType":5126,
			"count":24,
			"type":"VEC2"
		},
		{
			"bufferView":42,
			"componentType":5126,
			"count":24,
			"max":[
				-31,
				3.75,
				-31
			],
			"min":[
				-39,
				1.25,
				-39
			],
			"type":"VEC3"
		},
		{
			"bufferView":43,
			"componentType":5126,
			"count":24,
			"type":"VEC3"
		},
		{
			"bufferView":44,
			"componentType":5126,
			"count":24,
			"type":"VEC2"
		},
		{
			"bufferView":45,
			"componentType":5126,
			"count":24,
			"max":[
				39,
				3.75,
				39
			],
			"min":[
				31,
				1.25,
				31
			],
			"type":"VEC3"
		},
		{
			"bufferView":46,
			"componentType":5126,
			"count":24,
			"type":"VEC3"
		},
		{
			"bufferView":47,
			"componentType":5126,
			"count":24,
			"type":"VEC2"
		},
		{
			"bufferView":48,
			"componentType":5126,
			"count":12,
			"max":[
				-31,
				3.75,
				39
			],
			"min":[
				-39,
				1.25,
				31
			],
			"type":"VEC3"
		},
		{
			"bufferView":49,
			"componentType":5126,
			"count":12,
			"type":"VEC3"
		},
		{
			"bufferView":50,
			"componentType":5126,
			"count":12,
			"type":"VEC2"
		},
		{
			"bufferView":51,
			"componentType":5123,
			"count":36,
			"type":"SCALAR"
		},
		{
			"bufferView":52,
			"componentType":5126,
			"count":24,
			"max":[
				6,
				5,
				4.000000476837158
			],
			"min":[
				-6,
				0,
				-4.000000476837158
			],
			"type":"VEC3"
		},
		{
			"bufferView":53,
			"componentType":5126,
			"count":24,
			"type":"VEC3"
		},
		{
			"bufferView":54,
			"componentType":5126,
			"count":24,
			"type":"VEC2"
		},
		{
			"bufferView":55,
			"componentType":5123,
			"count":36,
			"type":"SCALAR"
		},
		{
			"bufferView":56,
			"componentType":5126,
			"count":24,
			"max":[
				6,
				5,
				4.000000476837158
			],
			"min":[
				-6,
				0,
				-4.000000476837158
			],
			"type":"VEC3"
		},
		{
			"bufferView":57,
			"componentType":5126,
			"count":24,
			"type":"VEC3"
		},
		{
			"bufferView":58,
			"componentType":5126,
			"count":24,
			"type":"VEC2"
		},
		{
			"bufferView":59,
			"componentType":5123,
			"count":36,
			"type":"SCALAR"
		},
		{
			"bufferView":60,
			"componentType":5126,
			"count":24,
			"max":[
				6,
				5,
				4.000000476837158
			],
			"min":[
				-6,
				0,
				-4.000000476837158
			],
			"type":"VEC3"
		},
		{
			"bufferView":61,
			"componentType":5126,
			"count":24,
			"type":"VEC3"
		},
		{
			"bufferView":62,
			"componentType":5126,
			"count":24,
			"type":"VEC2"
		},
		{
			"bufferView":63,
			"componentType":5126,
			"count":24,
			"max":[
				6,
				5,
				4.000000476837158
			],
			"min":[
				-6,
				0,
				-4.000000476837158
			],
			"type":"VEC3"
		},
		{
			"bufferView":64,
			"componentType":5126,
			"count":24,
			"type":"VEC3"
		},
		{
			"bufferView":65,
			"componentType":5126,
			"count":24,
			"type":"VEC2"
		},
		{
			"bufferView":66,
			"componentType":5126,
			"count":400,
			"max":[
				50,
				5,
				50
			],
			"min":[
				-50,
				0,
				-50
			],
			"type":"VEC3"
		},
		{
			"bufferView":67,
			"componentType":5126,
			"count":400,
			"type":"VEC3"
		},
		{
			"bufferView":68,
			"componentType":5126,
			"count":400,
			"type":"VEC2"
		},
		{
			"bufferView":69,
			"componentType":5123,
			"count":618,
			"type":"SCALAR"
		}
	],
	"bufferViews":[
		{
			"buffer":0,
			"byteLength":48,
			"byteOffset":0,
			"target":34962
		},
		{
			"buffer":0,
			"byteLength":48,
			"byteOffset":48,
			"target":34962
		},
		{
			"buffer":0,
			"byteLength":32,
			"byteOffset":96,
			"target":34962
		},
		{
			"buffer":0,
			"byteLength":12,
			"byteOffset":128,
			"target":34963
		},
		{
			"buffer":0,
			"byteLength":288,
			"byteOffset":140,
			"target":34962
		},
		{
			"buffer":0,
			"byteLength":288,
			"byteOffset":428,
			"target":34962
		},
		{
			"buffer":0,
			"byteLength":192,
			"byteOffset":716,
			"target":34962
		},
		{
			"buffer":0,
			"byteLength":72,
			"byteOffset":908,
			"target":34963
		},
		{
			"buffer":0,
			"byteLength":288,
			"byteOffset":980,
			"target":34962
		},
		{
			"buffer":0,
			"byteLength":288,
			"byteOffset":1268,
			"target":34962
		},
		{
			"buffer":0,
			"byteLength":192,
			"byteOffset":1556,
			"target":34962
		},
		{
			"buffer":0,
			"byteLength":288,
			"byteOffset":1748,
			"target":34962
		},
		{
			"buffer":0,
			"byteLength":288,
			"byteOffset":2036,
			"target":34962
		},
		{
			"buffer":0,
			"byteLength":192,
			"byteOffset":2324,
			"target":34962
		},
		{
			"buffer":0,
			"byteLength":72,
			"byteOffset":2516,
			"target":34963
		},
		{
			"buffer":0,
			"byteLength":288,
			"byteOffset":2588,
			"target":34962
		},
		{
			"buffer":0,
			"byteLength":288,
			"byteOffset":2876,
			"target":34962
		},
		{
			"buffer":0,
			"byteLength":192,
			"byteOffset":3164,
			"target":34962
		},
		{
			"buffer":0,
			"byteLength":72,
			"byteOffset":3356,
			"target":34963
		},
		{
			"buffer":0,
			"byteLength":288,
			"byteOffset":3428,
			"target":34962
		},
		{
			"buffer":0,
			"byteLength":288,
			"byteOffset":3716,
			"target":34962
		},
		{
			"buffer":0,
			"byteLength":192,
			"byteOffset":4004,
			"target":34962
		},
		{
			"buffer":0,
			"byteLength":72,
			"byteOffset":4196,
			"target":34963
		},
		{
			"buffer":0,
			"byteLength":288,
			"byteOffset":4268,
			"target":34962
		},
		{
			"buffer":0,
			"byteLength":288,
			"byteOffset":4556,
			"target":34962
		},
		{
			"buffer":0,
			"byteLength":192,
			"byteOffset":4844,
			"target":34962
		},
		{
			"buffer":0,
			"byteLength":72,
			"byteOffset":5036,
			"target":34963
		},
		{
			"buffer":0,
			"byteLength":288,
			"byteOffset":5108,
			"target":34962
		},
		{
			"buffer":0,
			"byteLength":288,
			"byteOffset":5396,
			"target":34962
		},
		{
			"buffer":0,
			"byteLength":192,
			"byteOffset":5684,
			"target":34962
		},
		{
			"buffer":0,
			"byteLength":72,
			"byteOffset":5876,
			"target":34963
		},
		{
			"buffer":0,
			"byteLength":288,
			"byteOffset":5948,
			"target":34962
		},
		{
			"buffer":0,
			"byteLength":288,
			"byteOffset":6236,
			"target":34962
		},
		{
			"buffer":0,
			"byteLength":192,
			"byteOffset":6524,
			"target":34962
		},
		{
			"buffer":0,
			"byteLength":72,
			"byteOffset":6716,
			"target":34963
		},
		{
			"buffer":0,
			"byteLength":288,
			"byteOffset":6788,
			"target":34962
		},
		{
			"buffer":0,
			"byteLength":288,
			"byteOffset":7076,
			"target":34962
		},
		{
			"buffer":0,
			"byteLength":192,
			"byteOffset":7364,
			"target":34962
		},
		{
			"buffer":0,
			"byteLength":72,
			"byteOffset":7556,
			"target":34963
		},
		{
			"buffer":0,
			"byteLength":288,
			"byteOffset":7628,
			"target":34962
		},
		{
			"buffer":0,
			"byteLength":288,
			"byteOffset":7916,
			"target":34962
		},
		{
			"buffer":0,
			"byteLength":192,
			"byteOffset":8204,
			"target":34962
		},
		{
			"buffer":0,
			"byteLength":288,
			"byteOffset":8396,
			"target":34962
		},
		{
			"buffer":0,
			"byteLength":288,
			"byteOffset":8684,
			"target":34962
		},
		{
			"buffer":0,
			"byteLength":192,
			"byteOffset":8972,
			"target":34962
		},
		{
			"buffer":0,
			"byteLength":288,
			"byteOffset":9164,
			"target":34962
		},
		{
			"buffer":0,
			"byteLength":288,
			"byteOffset":9452,
			"target":34962
		},
		{
			"buffer":0,
			"byteLength":192,
			"byteOffset":9740,
			"target":34962
		},
		{
			"buffer":0,
			"byteLength":144,
			"byteOffset":9932,
			"target":34962
		},
		{
			"buffer":0,
			"byteLength":144,
			"byteOffset":10076,
			"target":34962
		},
		{
			"buffer":0,
			"byteLength":96,
			"byteOffset":10220,
			"target":34962
		},
		{
			"buffer":0,
			"byteLength":72,
			"byteOffset":10316,
			"target":34963
		},
		{
			"buffer":0,
			"byteLength":288,
			"byteOffset":10388,
			"target":34962
		},
		{
			"buffer":0,
			"byteLength":288,
			"byteOffset":10676,
			"target":34962
		},
		{
			"buffer":0,
			"byteLength":192,
			"byteOffset":10964,
			"target":34962
		},
		{
			"buffer":0,
			"byteLength":72,
			"byteOffset":11156,
			"target":34963
		},
		{
			"buffer":0,
			"byteLength":288,
			"byteOffset":11228,
			"target":34962
		},
		{
			"buffer":0,
			"byteLength":288,
			"byteOffset":11516,
			"target":34962
		},
		{
			"buffer":0,
			"byteLength":192,
			"byteOffset":11804,
			"target":34962
		},
		{
			"buffer":0,
			"byteLength":72,
			"byteOffset":11996,
			"target":34963
		},
		{
			"buffer":0,
			"byteLength":288,
			"byteOffset":12068,
			"target":34962
		},
		{
			"buffer":0,
			"byteLength":288,
			"byteOffset":12356,
			"target":34962
		},
		{
			"buffer":0,
			"byteLength":192,
			"byteOffset":12644,
			"target":34962
		},
		{
			"buffer":0,
			"byteLength":288,
			"byteOffset":12836,
			"target":34962
		},
		{
			"buffer":0,
			"byteLength":288,
			"byteOffset":13124,
			"target":34962
		},
		{
			"buffer":0,
			"byteLength":192,
			"byteOffset":13412,
			"target":34962
		},
		{
			"buffer":0,
			"byteLength":4800,
			"byteOffset":13604,
			"target":34962
		},
		{
			"buffer":0,
			"byteLength":4800,
			"byteOffset":18404,
			"target":34962
		},
		{
			"buffer":0,
			"byteLength":3200,
			"byteOffset":23204,
			"target":34962
		},
		{
			"buffer":0,
			"byteLength":1236,
			"byteOffset":26404,
			"target":34963
		}
	],
	"samplers":[
		{
			"magFilter":9729,
			"minFilter":9987
		}
	],
	"buffers":[
		{
			"byteLength":27640,
			"uri":"hills.bin"
		}
	]
}
