{
	"asset":{
		"generator":"Khronos glTF Blender I/O v4.2.57",
		"version":"2.0"
	},
	"scene":0,
	"scenes":[
		{
			"name":"Scene",
			"nodes":[
				0
			]
		}
	],
	"nodes":[
		{
			"mesh":0,
			"name":"Sphere.001"
		}
	],
	"materials":[
		{
			"doubleSided":true,
			"name":"Material.001",
			"pbrMetallicRoughness":{
				"baseColorTexture":{
					"index":0
				},
				"metallicFactor":0,
				"roughnessFactor":0.5
			}
		}
	],
	"meshes":[
		{
			"name":"Sphere.001",
			"primitives":[
				{
					"attributes":{
						"POSITION":0,
						"NORMAL":1,
						"TEXCOORD_0":2
					},
					"indices":3,
					"material":0
				}
			]
		}
	],
	"textures":[
		{
			"sampler":0,
			"source":0
		}
	],
	"images":[
		{
			"mimeType":"image/jpeg",
			"name":"fish-wallpaper-blue-green-2953-in-architextures",
			"uri":"fish-wallpaper-blue-green-2953-in-architextures.jpg"
		}
	],
	"accessors":[
		{
			"bufferView":0,
			"componentType":5126,
			"count":4160,
			"max":[
				0.8995843529701233,
				3.7107982635498047,
				0.8995843529701233
			],
			"min":[
				-0.8995843529701233,
				0.10041564702987671,
				-0.8995843529701233
			],
			"type":"VEC3"
		},
		{
			"bufferView":1,
			"componentType":5126,
			"count":4160,
			"type":"VEC3"
		},
		{
			"bufferView":2,
			"componentType":5126,
			"count":4160,
			"type":"VEC2"
		},
		{
			"bufferView":3,
			"componentType":5123,
			"count":6132,
			"type":"SCALAR"
		}
	],
	"bufferViews":[
		{
			"buffer":0,
			"byteLength":49920,
			"byteOffset":0,
			"target":34962
		},
		{
			"buffer":0,
			"byteLength":49920,
			"byteOffset":49920,
			"target":34962
		},
		{
			"buffer":0,
			"byteLength":33280,
			"byteOffset":99840,
			"target":34962
		},
		{
			"buffer":0,
			"byteLength":12264,
			"byteOffset":133120,
			"target":34963
		}
	],
	"samplers":[
		{
			"magFilter":9729,
			"minFilter":9987
		}
	],
	"buffers":[
		{
			"byteLength":145384,
			"uri":"player.bin"
		}
	]
}
